<?xml version="1.0" encoding="utf-8"?>
<!-- Generator: Adobe Illustrator 26.1.0, SVG Export Plug-In . SVG Version: 6.00 Build 0)  -->
<svg version="1.1" id="Livello_1" xmlns="http://www.w3.org/2000/svg" xmlns:xlink="http://www.w3.org/1999/xlink" x="0px" y="0px"
	 viewBox="0 0 305.8 48.4" style="enable-background:new 0 0 305.8 48.4;" xml:space="preserve">
<style type="text/css">
	.st0{fill:#03071E;}
	.st1{fill:#007EA7;}
	.st2{fill:#003459;}
	.st3{fill:#00A8E8;}
</style>
<g>
	<g>
		<g>
			<path class="st0" d="M55.7,19.8c0-8.9,6.4-15.3,15.1-15.3c7.1,0,11.9,3.5,13.4,9.7l-6.4,1.7c-0.9-3.8-3.6-5.7-7.2-5.7
				c-4.7,0-8.3,3.9-8.3,9.7c0,6.1,3.9,9.7,8.8,9.7c4.3,0,7.7-2.4,8.2-6.4h-8.4v-5h14.5v16.3h-5.7v-4.6c-1.9,3.6-5.3,5.2-9.7,5.2
				C61.8,35.1,55.7,28.9,55.7,19.8z"/>
			<path class="st0" d="M89.6,28.5c0-3.6,3.4-6.6,8.2-6.6c2.5,0,4.5,0.9,5.7,2v-2.2c0-2.5-1.3-3.9-3.7-3.9c-2.2,0-3.7,1.2-4.3,3.5
				l-5.7-0.9c1.2-4.4,4.8-7.3,10.4-7.3c5.8,0,9.4,2.7,9.4,8.8v12.5h-5.8v-2.5c-1.4,1.9-3.9,3-6.3,3C92.9,35,89.6,32.5,89.6,28.5z
				 M103.5,28.3v-0.4c-0.9-1.1-2.5-2.1-4.3-2.1c-2,0-3.4,1.1-3.4,2.5c0,1.5,1.4,2.5,3.4,2.5C101,30.9,102.4,29.9,103.5,28.3z"/>
			<path class="st0" d="M114.5,13.6h5.8v3.8c1.1-2.6,3.1-4.1,6-4.1c3.4,0,5.9,2.3,5.9,6.3c0,1.1-0.2,2.2-0.6,3.6l-5.5-0.6
				c0.2-0.6,0.2-1.2,0.2-1.7c0-1.8-0.7-2.7-2.2-2.7c-1.9,0-3.5,2.1-3.5,5.8v10.5h-6.1V13.6z"/>
			<path class="st0" d="M133.9,24.1c0-6.4,4.1-11,9.6-11c3.1,0,5.3,1.2,6.5,3.4V5.1h6.1v29.4h-5.8v-3.6c-1.2,2.4-3.6,4.1-6.8,4.1
				C138.1,35,133.9,30.4,133.9,24.1z M150.1,24.1c0-3.6-2.2-6.2-5-6.2c-3,0-4.9,2.3-4.9,6.2c0,3.9,1.9,6.2,4.9,6.2
				C147.9,30.2,150.1,27.6,150.1,24.1z"/>
			<path class="st0" d="M160.1,28.5c0-3.6,3.4-6.6,8.2-6.6c2.5,0,4.5,0.9,5.7,2v-2.2c0-2.5-1.3-3.9-3.7-3.9c-2.2,0-3.7,1.2-4.3,3.5
				l-5.7-0.9c1.2-4.4,4.8-7.3,10.4-7.3c5.8,0,9.4,2.7,9.4,8.8v12.5h-5.8v-2.5c-1.4,1.9-3.9,3-6.3,3C163.4,35,160.1,32.5,160.1,28.5z
				 M174,28.3v-0.4c-0.9-1.1-2.5-2.1-4.3-2.1c-2,0-3.4,1.1-3.4,2.5c0,1.5,1.4,2.5,3.4,2.5C171.5,30.9,172.9,29.9,174,28.3z"/>
			<path class="st0" d="M191,10.8h-9.1V5.1h24.4v5.8h-9v23.7H191V10.8z"/>
			<path class="st0" d="M206.1,24.1c0-6.4,4.6-11,11.2-11c6.6,0,11.2,4.5,11.2,11c0,6.4-4.6,10.9-11.2,10.9
				C210.7,35,206.1,30.5,206.1,24.1z M222.2,24.1c0-3.9-1.9-6.2-4.9-6.2c-3,0-4.9,2.3-4.9,6.2c0,3.9,1.9,6.2,4.9,6.2
				C220.2,30.2,222.2,27.9,222.2,24.1z"/>
			<path class="st0" d="M230.8,24.1c0-6.4,4.1-11,9.6-11c3.1,0,5.3,1.2,6.5,3.4V5.1h6.1v29.4h-5.8v-3.6c-1.2,2.4-3.6,4.1-6.8,4.1
				C235,35,230.8,30.4,230.8,24.1z M247,24.1c0-3.6-2.2-6.2-5-6.2c-3,0-4.9,2.3-4.9,6.2c0,3.9,1.9,6.2,4.9,6.2
				C244.8,30.2,247,27.6,247,24.1z"/>
			<path class="st0" d="M257,28.5c0-3.6,3.4-6.6,8.2-6.6c2.5,0,4.5,0.9,5.7,2v-2.2c0-2.5-1.3-3.9-3.7-3.9c-2.2,0-3.7,1.2-4.3,3.5
				l-5.7-0.9c1.2-4.4,4.8-7.3,10.4-7.3c5.8,0,9.4,2.7,9.4,8.8v12.5h-5.8v-2.5c-1.4,1.9-3.9,3-6.3,3C260.3,35,257,32.5,257,28.5z
				 M270.9,28.3v-0.4c-0.9-1.1-2.5-2.1-4.3-2.1c-2,0-3.4,1.1-3.4,2.5c0,1.5,1.4,2.5,3.4,2.5C268.4,30.9,269.8,29.9,270.9,28.3z"/>
			<path class="st0" d="M279.1,40.7l3.8-3.6c0.7,1.3,1.5,1.8,2.4,1.8c1.3,0,2-1.1,2.8-3.1l0.5-1.3h-2l-7.5-20.9h6.5l4.8,14.7
				l4.7-14.7h6.5l-8.9,24.2c-1.8,4.7-4,6.1-7.2,6.1C282.7,43.9,280.6,43.1,279.1,40.7z"/>
		</g>
	</g>
	<g>
		<path class="st1" d="M44.6,19.6c0,0.7,0,1.5,0,2.2c0,0.9,0,2,0,2.9c0,0.1-0.1,0.2-0.2,0.2c-1.9,0.5-3.7,1.1-5.6,1.5
			c-2.7,0.7-5.4,0.7-8.1,0.6c-2.6-0.1-5.2-0.6-7.7-1.5c-3.2-1-6.5-1.4-9.8-1.3c-2.9,0-5.7,0.4-8.5,1.2c-0.1,0-0.2,0.1-0.3,0.1
			c0-0.1,0-0.2,0-0.3c0-1.5,0-3,0-4.5c0-0.2,0.1-0.3,0.3-0.4c1.8-0.5,3.5-1,5.4-1.2c1.6-0.1,3.1-0.2,4.7-0.2c3,0,5.9,0.6,8.7,1.5
			c3.3,1.1,6.8,1.3,10.2,1.2c3.4-0.1,6.6-0.8,9.8-1.8c0.3-0.1,0.6-0.2,0.9-0.2C44.5,19.6,44.5,19.6,44.6,19.6z"/>
		<path class="st2" d="M44.7,27.8c0,0.7,0,1.5,0,2.2c0,0.9,0,1.8,0,2.8c0,0.1-0.1,0.3-0.2,0.3c-1.9,0.5-3.7,1.1-5.6,1.5
			c-2.7,0.7-5.4,0.7-8.1,0.6c-2.6-0.1-5.2-0.6-7.7-1.4c-3.2-1-6.4-1.4-9.8-1.3c-2.9,0-5.7,0.4-8.5,1.2c-0.1,0-0.2,0.1-0.3,0.1
			c0-0.1,0-0.2,0-0.3c0-1.5,0-3,0-4.5c0-0.2,0.1-0.3,0.3-0.4c1.8-0.5,3.5-1,5.4-1.2c1.5-0.1,3.1-0.2,4.7-0.2c3,0,5.9,0.6,8.7,1.5
			c3.3,1.1,6.7,1.3,10.2,1.2c3.4-0.1,6.6-0.8,9.8-1.8c0.3-0.1,0.6-0.2,0.9-0.2C44.5,27.8,44.6,27.8,44.7,27.8z"/>
		<path class="st3" d="M44.7,16.7c-0.7,0.2-1.3,0.3-1.9,0.5c-1.6,0.4-3.2,0.9-4.8,1.3c-2.3,0.5-4.6,0.5-7,0.4
			c-2.6-0.1-5.2-0.6-7.7-1.4c-3.2-1-6.5-1.4-9.9-1.4c-2.9,0-5.8,0.4-8.6,1.2c-0.1,0-0.2,0-0.3,0.1c0-0.7,0-1.4,0-2
			c0-0.4,0-0.9,0-1.3c0-0.5,0.2-0.8,0.7-1.1c2.1-1,4.3-2.1,6.4-3.1c1.2-0.6,2.4-1.1,3.5-1.7c0.6-0.3,1.2-0.3,1.9,0
			c1.5,0.7,3,1.5,4.5,2.2c0.7,0.4,1.4,0.3,2.1-0.1c2.8-1.6,5.6-3.2,8.4-4.8c0.5-0.3,0.9-0.5,1.4-0.8c0.7-0.4,1.3-0.3,1.8,0.1
			c3,2.4,6.1,4.8,9.1,7.3c0.3,0.2,0.5,0.5,0.5,0.9C44.6,14.2,44.7,15.4,44.7,16.7z"/>
	</g>
</g>
</svg>
